<svg width="40" height="40" viewBox="0 0 40 40" fill="none" xmlns="http://www.w3.org/2000/svg">
<g clip-path="url(#clip0_4137_13304)">
<path d="M24.9 16.8496L17.5667 24.2162L14.9 21.5496C14.4167 21.0662 13.6167 21.0662 13.1333 21.5496C12.65 22.0329 12.65 22.8329 13.1333 23.3162L16.6667 26.8496C17.15 27.3329 17.95 27.3329 18.4333 26.8496L26.6667 18.6163C27.15 18.1329 27.15 17.3329 26.6667 16.8496C26.1833 16.3662 25.3833 16.3662 24.9 16.8496ZM35.3 8.34958L30.1667 4.08292C29.4667 3.49958 28.4167 3.58292 27.8167 4.29958C27.2333 4.99958 27.3333 6.04958 28.0333 6.64958L33.15 10.9162C33.85 11.4996 34.9 11.4162 35.5 10.6996C36.1 9.99958 36 8.94958 35.3 8.34958ZM6.83334 10.9162L11.95 6.64958C12.6667 6.04958 12.7667 4.99958 12.1667 4.29958C11.5833 3.58292 10.5333 3.49958 9.83334 4.08292L4.7 8.34958C4 8.94958 3.9 9.99958 4.5 10.6996C5.08334 11.4162 6.13334 11.4996 6.83334 10.9162ZM20 6.66625C11.7167 6.66625 5 13.3829 5 21.6663C5 29.9496 11.7167 36.6663 20 36.6663C28.2833 36.6663 35 29.9496 35 21.6663C35 13.3829 28.2833 6.66625 20 6.66625ZM20 33.3329C13.5667 33.3329 8.33334 28.0996 8.33334 21.6663C8.33334 15.2329 13.5667 9.99958 20 9.99958C26.4333 9.99958 31.6667 15.2329 31.6667 21.6663C31.6667 28.0996 26.4333 33.3329 20 33.3329Z" fill="#EB201E"/>
</g>
<defs>
<clipPath id="clip0_4137_13304">
<rect width="40" height="40" fill="white"/>
</clipPath>
</defs>
</svg>
