<svg width="25" height="24" viewBox="0 0 25 24" fill="none" xmlns="http://www.w3.org/2000/svg">
<g clip-path="url(#clip0_2564_115306)">
<path d="M7.06663 9.2H7.26663C8.03663 9.2 8.66663 9.83 8.66663 10.6V17.6C8.66663 18.37 8.03663 19 7.26663 19H7.06663C6.29663 19 5.66663 18.37 5.66663 17.6V10.6C5.66663 9.83 6.29663 9.2 7.06663 9.2ZM12.6666 5C13.4366 5 14.0666 5.63 14.0666 6.4V17.6C14.0666 18.37 13.4366 19 12.6666 19C11.8966 19 11.2666 18.37 11.2666 17.6V6.4C11.2666 5.63 11.8966 5 12.6666 5ZM18.2666 13C19.0366 13 19.6666 13.63 19.6666 14.4V17.6C19.6666 18.37 19.0366 19 18.2666 19C17.4966 19 16.8666 18.37 16.8666 17.6V14.4C16.8666 13.63 17.4966 13 18.2666 13Z" fill="#666666"/>
</g>
<defs>
<clipPath id="clip0_2564_115306">
<rect width="24" height="24" fill="white" transform="translate(0.666626)"/>
</clipPath>
</defs>
</svg>
