<svg width="16" height="16" viewBox="0 0 16 16" fill="none" xmlns="http://www.w3.org/2000/svg">
<g clip-path="url(#clip0_1175_14518)">
<path d="M12.6667 2.66634H12V1.99967C12 1.63301 11.7 1.33301 11.3333 1.33301C10.9667 1.33301 10.6667 1.63301 10.6667 1.99967V2.66634L5.33333 2.66634V1.99967C5.33333 1.63301 5.03333 1.33301 4.66667 1.33301C4.3 1.33301 4 1.63301 4 1.99967V2.66634H3.33333C2.59333 2.66634 2.00667 3.26634 2.00667 3.99967L2 13.333C2 14.0663 2.59333 14.6663 3.33333 14.6663L12.6667 14.6663C13.4 14.6663 14 14.0663 14 13.333L14 3.99967C14 3.26634 13.4 2.66634 12.6667 2.66634ZM12.6667 12.6663C12.6667 13.033 12.3667 13.333 12 13.333L4 13.333C3.63333 13.333 3.33333 13.033 3.33333 12.6663L3.33333 5.99967L12.6667 5.99967L12.6667 12.6663ZM4.66667 7.33301L6 7.33301L6 8.66634H4.66667L4.66667 7.33301ZM7.33333 7.33301H8.66667V8.66634H7.33333V7.33301ZM10 7.33301L11.3333 7.33301V8.66634L10 8.66634V7.33301Z" fill="#1E1E1E"/>
</g>
<defs>
<clipPath id="clip0_1175_14518">
<rect width="16" height="16" fill="white"/>
</clipPath>
</defs>
</svg>
