<svg width="16" height="17" viewBox="0 0 16 17" fill="none" xmlns="http://www.w3.org/2000/svg">
<g clip-path="url(#clip0_659_4991)">
<path d="M8.00016 1.8335C4.3135 1.8335 1.3335 4.8135 1.3335 8.50016C1.3335 12.1868 4.3135 15.1668 8.00016 15.1668C11.6868 15.1668 14.6668 12.1868 14.6668 8.50016C14.6668 4.8135 11.6868 1.8335 8.00016 1.8335ZM10.8668 11.3668C10.6068 11.6268 10.1868 11.6268 9.92683 11.3668L8.00016 9.44016L6.0735 11.3668C5.8135 11.6268 5.3935 11.6268 5.1335 11.3668C4.8735 11.1068 4.8735 10.6868 5.1335 10.4268L7.06016 8.50016L5.1335 6.5735C4.8735 6.3135 4.8735 5.8935 5.1335 5.6335C5.3935 5.3735 5.8135 5.3735 6.0735 5.6335L8.00016 7.56016L9.92683 5.6335C10.1868 5.3735 10.6068 5.3735 10.8668 5.6335C11.1268 5.8935 11.1268 6.3135 10.8668 6.5735L8.94016 8.50016L10.8668 10.4268C11.1202 10.6802 11.1202 11.1068 10.8668 11.3668Z" fill="currentColor"/>
</g>
<defs>
<clipPath id="clip0_659_4991">
<rect width="16" height="16" fill="white" transform="translate(0 0.5)"/>
</clipPath>
</defs>
</svg>
