<svg width="40" height="40" viewBox="0 0 40 40" fill="none" xmlns="http://www.w3.org/2000/svg">
<g clip-path="url(#clip0_4251_103519)">
<path d="M20 3.33301C10.8 3.33301 3.33337 10.7997 3.33337 19.9997C3.33337 29.1997 10.8 36.6663 20 36.6663C29.2 36.6663 36.6667 29.1997 36.6667 19.9997C36.6667 10.7997 29.2 3.33301 20 3.33301ZM20 33.333C12.65 33.333 6.66671 27.3497 6.66671 19.9997C6.66671 12.6497 12.65 6.66634 20 6.66634C27.35 6.66634 33.3334 12.6497 33.3334 19.9997C33.3334 27.3497 27.35 33.333 20 33.333ZM26.4667 13.8163L16.6667 23.6163L13.5334 20.483C12.8834 19.833 11.8334 19.833 11.1834 20.483C10.5334 21.133 10.5334 22.183 11.1834 22.833L15.5 27.1497C16.15 27.7997 17.2 27.7997 17.85 27.1497L28.8334 16.1663C29.4834 15.5163 29.4834 14.4663 28.8334 13.8163C28.1834 13.1663 27.1167 13.1663 26.4667 13.8163Z" fill="currentColor"/>
</g>
<defs>
<clipPath id="clip0_4251_103519">
<rect width="40" height="40" fill="white"/>
</clipPath>
</defs>
</svg>
