<svg width="32" height="32" viewBox="0 0 32 32" fill="none" xmlns="http://www.w3.org/2000/svg">
<g clip-path="url(#clip0_1365_17767)">
<path d="M8 16C8 11.59 11.59 8 16 8C20.41 8 24 11.59 24 16C24 20.41 20.41 24 16 24C11.59 24 8 20.41 8 16ZM6 16C6 21.52 10.48 26 16 26C21.52 26 26 21.52 26 16C26 10.48 21.52 6 16 6C10.48 6 6 10.48 6 16ZM16 15H13C12.45 15 12 15.45 12 16C12 16.55 12.45 17 13 17H16V18.79C16 19.24 16.54 19.46 16.85 19.14L19.64 16.35C19.84 16.15 19.84 15.84 19.64 15.64L16.85 12.85C16.54 12.54 16 12.76 16 13.2V15Z" fill="currentColor"/>
</g>
<defs>
<clipPath id="clip0_1365_17767">
<rect width="24" height="24" fill="white" transform="translate(4 4)"/>
</clipPath>
</defs>
</svg>
