<svg width="16" height="16" viewBox="0 0 16 16" fill="none" xmlns="http://www.w3.org/2000/svg">
<g clip-path="url(#clip0_1365_11691)">
<path d="M7.99301 1.33398C4.31301 1.33398 1.33301 4.32065 1.33301 8.00065C1.33301 11.6807 4.31301 14.6673 7.99301 14.6673C11.6797 14.6673 14.6663 11.6807 14.6663 8.00065C14.6663 4.32065 11.6797 1.33398 7.99301 1.33398ZM7.99967 13.334C5.05301 13.334 2.66634 10.9473 2.66634 8.00065C2.66634 5.05398 5.05301 2.66732 7.99967 2.66732C10.9463 2.66732 13.333 5.05398 13.333 8.00065C13.333 10.9473 10.9463 13.334 7.99967 13.334ZM7.85301 4.66732H7.81301C7.54634 4.66732 7.33301 4.88065 7.33301 5.14732V8.29398C7.33301 8.52732 7.45301 8.74732 7.65967 8.86732L10.4263 10.5273C10.653 10.6607 10.9463 10.594 11.0797 10.3673C11.2197 10.1407 11.1463 9.84065 10.913 9.70732L8.33301 8.17398V5.14732C8.33301 4.88065 8.11967 4.66732 7.85301 4.66732Z" fill="#666666"/>
</g>
<defs>
<clipPath id="clip0_1365_11691">
<rect width="16" height="16" fill="white"/>
</clipPath>
</defs>
</svg>
