<svg width="16" height="16" viewBox="0 0 16 16" fill="none" xmlns="http://www.w3.org/2000/svg">
<g clip-path="url(#clip0_3132_33992)">
<path d="M9.99992 0.667969H2.66659C1.93325 0.667969 1.33325 1.26797 1.33325 2.0013V10.668C1.33325 11.0346 1.63325 11.3346 1.99992 11.3346C2.36659 11.3346 2.66659 11.0346 2.66659 10.668V2.66797C2.66659 2.3013 2.96659 2.0013 3.33325 2.0013H9.99992C10.3666 2.0013 10.6666 1.7013 10.6666 1.33464C10.6666 0.967969 10.3666 0.667969 9.99992 0.667969ZM12.6666 3.33464H5.33325C4.59992 3.33464 3.99992 3.93464 3.99992 4.66797V14.0013C3.99992 14.7346 4.59992 15.3346 5.33325 15.3346H12.6666C13.3999 15.3346 13.9999 14.7346 13.9999 14.0013V4.66797C13.9999 3.93464 13.3999 3.33464 12.6666 3.33464ZM11.9999 14.0013H5.99992C5.63325 14.0013 5.33325 13.7013 5.33325 13.3346V5.33464C5.33325 4.96797 5.63325 4.66797 5.99992 4.66797H11.9999C12.3666 4.66797 12.6666 4.96797 12.6666 5.33464V13.3346C12.6666 13.7013 12.3666 14.0013 11.9999 14.0013Z" fill="#666666"/>
</g>
<defs>
<clipPath id="clip0_3132_33992">
<rect width="16" height="16" fill="white"/>
</clipPath>
</defs>
</svg>
