<svg width="60" height="61" viewBox="0 0 60 61" fill="none" xmlns="http://www.w3.org/2000/svg">
<g clip-path="url(#clip0_2472_3936)">
<path d="M43.6378 16.1914L43.6393 16.19C43.8332 15.996 44.1419 15.996 44.3358 16.19C44.4077 16.2618 44.4625 16.3776 44.4625 16.5258C44.4625 16.6739 44.4077 16.7897 44.3358 16.8616L32.1108 29.0866L30.6966 30.5008L32.1108 31.915L44.3358 44.14C44.5298 44.3339 44.5298 44.6426 44.3358 44.8366L45.75 46.2508L44.3358 44.8366C44.1419 45.0305 43.8332 45.0305 43.6393 44.8366L31.4143 32.6116L30 31.1974L28.5858 32.6116L16.3608 44.8366C16.1669 45.0305 15.8582 45.0305 15.6643 44.8366L14.6137 45.8871L15.6643 44.8366C15.4703 44.6426 15.4703 44.3339 15.6643 44.14L27.8893 31.915L29.3035 30.5008L27.8893 29.0866L15.6643 16.8616C15.4703 16.6676 15.4703 16.3589 15.6643 16.165C15.8582 15.971 16.1669 15.971 16.3608 16.165L28.5858 28.39L29.9986 29.8028L31.4128 28.3914L43.6378 16.1914Z" fill="#1E1E1E" stroke="#EB201E" stroke-width="4" stroke-linecap="round"/>
</g>
<defs>
<clipPath id="clip0_2472_3936">
<rect y="0.5" width="60" height="60" rx="30" fill="white"/>
</clipPath>
</defs>
</svg>
