<svg width="20" height="20" viewBox="0 0 20 20" fill="none" xmlns="http://www.w3.org/2000/svg">
<path id="Vector" d="M10 1.00019H10.393C9.10834 2.19389 8.28259 3.80003 8.05929 5.53941C7.83598 7.27879 8.22925 9.04142 9.17073 10.5209C10.1122 12.0004 11.5424 13.1032 13.2126 13.6377C14.8828 14.1721 16.6875 14.1043 18.313 13.4462C17.6877 14.9507 16.6658 16.2572 15.3562 17.2264C14.0466 18.1957 12.4984 18.7912 10.8769 18.9496C9.25537 19.1079 7.62126 18.8231 6.14888 18.1256C4.67651 17.428 3.42111 16.3439 2.51658 14.9888C1.61206 13.6337 1.09235 12.0585 1.01288 10.4312C0.933415 8.80385 1.29718 7.18548 2.06537 5.7487C2.83356 4.31192 3.97736 3.11061 5.37476 2.27292C6.77216 1.43523 8.37075 0.99258 10 0.992188V1.00019Z" stroke="#1E1E1E" stroke-width="2" stroke-linecap="round" stroke-linejoin="round"/>
</svg>
