<svg width="16" height="16" viewBox="0 0 16 16" fill="none" xmlns="http://www.w3.org/2000/svg">
<g clip-path="url(#clip0_2188_50175)">
<path d="M3.99992 12.6667C3.99992 13.4 4.59992 14 5.33325 14H10.6666C11.3999 14 11.9999 13.4 11.9999 12.6667V6C11.9999 5.26667 11.3999 4.66667 10.6666 4.66667H5.33325C4.59992 4.66667 3.99992 5.26667 3.99992 6V12.6667ZM5.99992 6H9.99992C10.3666 6 10.6666 6.3 10.6666 6.66667V12C10.6666 12.3667 10.3666 12.6667 9.99992 12.6667H5.99992C5.63325 12.6667 5.33325 12.3667 5.33325 12V6.66667C5.33325 6.3 5.63325 6 5.99992 6ZM10.3333 2.66667L9.85992 2.19333C9.73992 2.07333 9.56659 2 9.39325 2H6.60659C6.43325 2 6.25992 2.07333 6.13992 2.19333L5.66659 2.66667H3.99992C3.63325 2.66667 3.33325 2.96667 3.33325 3.33333C3.33325 3.7 3.63325 4 3.99992 4H11.9999C12.3666 4 12.6666 3.7 12.6666 3.33333C12.6666 2.96667 12.3666 2.66667 11.9999 2.66667H10.3333Z" fill="currentColor"/>
</g>
<defs>
<clipPath id="clip0_2188_50175">
<rect width="16" height="16" fill="white"/>
</clipPath>
</defs>
</svg>
