<svg width="24" height="24" viewBox="0 0 24 24" fill="none" xmlns="http://www.w3.org/2000/svg">
<g id="Disconnect">
<path id="Vector (Stroke)" fill-rule="evenodd" clip-rule="evenodd" d="M12.1009 2C12.6532 2 13.1009 2.44772 13.1009 3V10.2004C13.1009 10.7527 12.6532 11.2004 12.1009 11.2004C11.5486 11.2004 11.1009 10.7527 11.1009 10.2004V3C11.1009 2.44772 11.5486 2 12.1009 2ZM8.45456 5.59722C8.75994 6.05739 8.63446 6.678 8.17428 6.98338C6.90345 7.82673 5.93796 9.05688 5.42074 10.4917C4.90352 11.9265 4.86206 13.4898 5.3025 14.95C5.74294 16.4102 6.64187 17.6898 7.86621 18.5994C9.09055 19.5089 10.5752 20 12.1004 20C13.6256 20 15.1103 19.5089 16.3346 18.5994C17.559 17.6898 18.4579 16.4102 18.8983 14.95C19.3388 13.4898 19.2973 11.9265 18.7801 10.4917C18.2629 9.05688 17.2974 7.82673 16.0266 6.98338C15.5664 6.678 15.4409 6.05739 15.7463 5.59722C16.0517 5.13705 16.6723 5.01156 17.1324 5.31695C18.7612 6.39785 19.9987 7.9745 20.6616 9.81348C21.3245 11.6525 21.3776 13.656 20.8131 15.5276C20.2486 17.3991 19.0965 19.0391 17.5273 20.2048C15.9581 21.3705 14.0552 22 12.1004 22C10.1456 22 8.24275 21.3705 6.67354 20.2048C5.10434 19.0391 3.95221 17.3991 3.38771 15.5276C2.8232 13.656 2.87634 11.6525 3.53925 9.81348C4.20216 7.9745 5.43961 6.39785 7.06839 5.31695C7.52857 5.01156 8.14917 5.13705 8.45456 5.59722Z" fill="currentColor"/>
</g>
</svg>
