<svg width="20" height="21" viewBox="0 0 20 21" fill="none" xmlns="http://www.w3.org/2000/svg">
<g id="info" clip-path="url(#clip0_2494_62114)">
<path id="Vector" d="M9.99984 2.16797C5.39984 2.16797 1.6665 5.9013 1.6665 10.5013C1.6665 15.1013 5.39984 18.8346 9.99984 18.8346C14.5998 18.8346 18.3332 15.1013 18.3332 10.5013C18.3332 5.9013 14.5998 2.16797 9.99984 2.16797ZM9.99984 14.668C9.5415 14.668 9.1665 14.293 9.1665 13.8346V10.5013C9.1665 10.043 9.5415 9.66797 9.99984 9.66797C10.4582 9.66797 10.8332 10.043 10.8332 10.5013V13.8346C10.8332 14.293 10.4582 14.668 9.99984 14.668ZM10.8332 8.0013H9.1665V6.33464H10.8332V8.0013Z" fill="#0146F4"/>
</g>
<defs>
<clipPath id="clip0_2494_62114">
<rect width="20" height="20" fill="white" transform="translate(0 0.5)"/>
</clipPath>
</defs>
</svg>
