<svg width="16" height="17" viewBox="0 0 16 17" fill="currentColor" xmlns="http://www.w3.org/2000/svg">
<g clip-path="url(#clip0_239_2157)">
<path d="M7.3335 5.16659H8.66683V6.49992H7.3335V5.16659ZM8.00016 11.8333C8.36683 11.8333 8.66683 11.5333 8.66683 11.1666V8.49992C8.66683 8.13325 8.36683 7.83325 8.00016 7.83325C7.6335 7.83325 7.3335 8.13325 7.3335 8.49992V11.1666C7.3335 11.5333 7.6335 11.8333 8.00016 11.8333ZM8.00016 1.83325C4.32016 1.83325 1.3335 4.81992 1.3335 8.49992C1.3335 12.1799 4.32016 15.1666 8.00016 15.1666C11.6802 15.1666 14.6668 12.1799 14.6668 8.49992C14.6668 4.81992 11.6802 1.83325 8.00016 1.83325ZM8.00016 13.8333C5.06016 13.8333 2.66683 11.4399 2.66683 8.49992C2.66683 5.55992 5.06016 3.16659 8.00016 3.16659C10.9402 3.16659 13.3335 5.55992 13.3335 8.49992C13.3335 11.4399 10.9402 13.8333 8.00016 13.8333Z" fill="currentColor"/>
</g>
<defs>
<clipPath id="clip0_239_2157">
<rect width="16" height="16" fill="white" transform="translate(0 0.5)"/>
</clipPath>
</defs>
</svg>
