<svg width="34" height="34" viewBox="0 0 34 34" fill="none" xmlns="http://www.w3.org/2000/svg">
<g clip-path="url(#clip0_2374_60754)">
<rect width="32" height="32" fill="#50AF95"/>
<path fill-rule="evenodd" clip-rule="evenodd" d="M18.1479 17.5515C18.0297 17.5604 17.4191 17.5969 16.057 17.5969C14.9736 17.5969 14.2044 17.5643 13.9345 17.5515C9.74771 17.3669 6.62264 16.6365 6.62264 15.762C6.62264 14.8876 9.74771 14.1582 13.9345 13.9707V16.8241C14.2083 16.8438 14.9923 16.8902 16.0757 16.8902C17.3757 16.8902 18.0267 16.8359 18.1439 16.825V13.9726C22.3219 14.1592 25.44 14.8895 25.44 15.762C25.44 16.6346 22.3229 17.3649 18.1439 17.5505L18.1479 17.5515ZM18.1479 13.6775V11.1242H23.9785V7.23047H8.10392V11.1242H13.9335V13.6765C9.19519 13.8947 5.63184 14.8353 5.63184 15.9624C5.63184 17.0896 9.19519 18.0292 13.9335 18.2483V26.4305H18.1469V18.2453C22.8744 18.0272 26.4318 17.0876 26.4318 15.9614C26.4318 14.8353 22.8773 13.8956 18.1469 13.6765L18.1479 13.6775Z" fill="white"/>
</g>
<g clip-path="url(#clip1_2374_60754)">
<g clip-path="url(#clip2_2374_60754)">
<rect width="12" height="12" transform="translate(22 22)" fill="#6FBCF0"/>
<path fill-rule="evenodd" clip-rule="evenodd" d="M25.2422 31.0661C25.8166 32.0849 26.8486 32.6953 27.9973 32.6953C29.146 32.6953 30.178 32.0849 30.7523 31.0661C31.3267 30.0472 31.3267 28.831 30.7523 27.8122L28.3293 23.5165C28.1813 23.2549 27.8133 23.2549 27.6652 23.5165L25.2422 27.8122C24.6634 28.831 24.6634 30.0472 25.2422 31.0661ZM27.3153 25.5588L27.8313 24.6409C27.9031 24.5124 28.0915 24.5124 28.1633 24.6409L30.1511 28.1656C30.5145 28.8127 30.5863 29.5608 30.3575 30.2492C30.3351 30.139 30.2992 30.0243 30.2543 29.9095C29.9806 29.1982 29.3569 28.652 28.4056 28.2849C27.7505 28.0325 27.3332 27.6561 27.1672 27.1743C26.9518 26.5501 27.1806 25.8709 27.3153 25.5588ZM26.4313 27.1192L25.8435 28.1656C25.3948 28.9641 25.3948 29.9141 25.8435 30.7127C26.2922 31.5112 27.0999 31.984 27.9973 31.984C28.5941 31.984 29.1505 31.7728 29.5902 31.4011C29.6485 31.2542 29.8235 30.7173 29.6037 30.162C29.4017 29.6479 28.9171 29.2395 28.1588 28.9458C27.3063 28.6153 26.7499 28.0967 26.5076 27.4083C26.4762 27.3119 26.4537 27.2156 26.4313 27.1192Z" fill="white"/>
</g>
</g>
<defs>
<clipPath id="clip0_2374_60754">
<path d="M0 16C0 7.16344 7.16344 0 16 0C24.8366 0 32 7.16344 32 16C32 24.8366 24.8366 32 16 32C7.16344 32 0 24.8366 0 16Z" fill="white"/>
</clipPath>
<clipPath id="clip1_2374_60754">
<rect width="12" height="12" fill="white" transform="translate(22 22)"/>
</clipPath>
<clipPath id="clip2_2374_60754">
<rect x="22" y="22" width="12" height="12" rx="3" fill="white"/>
</clipPath>
</defs>
</svg>
