<svg width="24" height="24" viewBox="0 0 24 24" fill="none" xmlns="http://www.w3.org/2000/svg">
<path fill-rule="evenodd" clip-rule="evenodd" d="M9.41984 2C9.77237 2.00011 10.1186 2.09341 10.4235 2.27042C10.7283 2.44744 10.981 2.70189 11.1558 3.008L11.9998 4.484L12.8438 3.008C13.0187 2.70189 13.2714 2.44744 13.5762 2.27042C13.8811 2.09341 14.2273 2.00011 14.5798 2H19.1378C19.4006 1.99991 19.6588 2.06884 19.8865 2.1999C20.1143 2.33096 20.3036 2.51955 20.4355 2.74678C20.5675 2.97402 20.6374 3.23192 20.6383 3.49468C20.6393 3.75744 20.5712 4.01584 20.4408 4.244L17.0588 10.162C18.0065 11.153 18.6423 12.4004 18.8872 13.7495C19.1322 15.0986 18.9755 16.49 18.4367 17.7508C17.8979 19.0117 17.0006 20.0865 15.8563 20.8419C14.712 21.5973 13.371 22 11.9998 22C10.6287 22 9.28771 21.5973 8.1434 20.8419C6.99908 20.0865 6.10182 19.0117 5.56299 17.7508C5.02416 16.49 4.8675 15.0986 5.11245 13.7495C5.3574 12.4004 5.99317 11.153 6.94084 10.162L3.55884 4.244C3.42851 4.01584 3.36041 3.75744 3.36134 3.49468C3.36227 3.23192 3.43221 2.97402 3.56415 2.74678C3.6961 2.51955 3.88542 2.33096 4.11316 2.1999C4.34091 2.06884 4.59908 1.99991 4.86184 2H9.41984ZM11.9998 10C10.6738 10 9.40199 10.5268 8.46431 11.4645C7.52663 12.4021 6.99984 13.6739 6.99984 15C6.99984 16.3261 7.52663 17.5979 8.46431 18.5355C9.40199 19.4732 10.6738 20 11.9998 20C13.3259 20 14.5977 19.4732 15.5354 18.5355C16.4731 17.5979 16.9998 16.3261 16.9998 15C16.9998 13.6739 16.4731 12.4021 15.5354 11.4645C14.5977 10.5268 13.3259 10 11.9998 10ZM11.9998 13C12.5303 13 13.039 13.2107 13.4141 13.5858C13.7891 13.9609 13.9998 14.4696 13.9998 15C13.9998 15.5304 13.7891 16.0391 13.4141 16.4142C13.039 16.7893 12.5303 17 11.9998 17C11.4694 17 10.9607 16.7893 10.5856 16.4142C10.2106 16.0391 9.99984 15.5304 9.99984 15C9.99984 14.4696 10.2106 13.9609 10.5856 13.5858C10.9607 13.2107 11.4694 13 11.9998 13ZM18.2768 4H14.5798L13.1518 6.5L14.2118 8.357C14.6525 8.50367 15.0708 8.69033 15.4668 8.917L18.2768 4ZM9.41984 4H5.72284L8.53284 8.917C9.50304 8.36281 10.5924 8.05033 11.7088 8.006L9.41984 4Z" fill="black"/>
</svg>
