<svg width="32" height="32" viewBox="0 0 32 32" fill="none" xmlns="http://www.w3.org/2000/svg">
<g clipPath="url(#clip0_178_2029)">
<path d="M22 23H10C9.45 23 9 22.55 9 22V10C9 9.45 9.45 9 10 9H15C15.55 9 16 8.55 16 8C16 7.45 15.55 7 15 7H9C7.89 7 7 7.9 7 9V23C7 24.1 7.9 25 9 25H23C24.1 25 25 24.1 25 23V17C25 16.45 24.55 16 24 16C23.45 16 23 16.45 23 17V22C23 22.55 22.55 23 22 23ZM18 8C18 8.55 18.45 9 19 9H21.59L12.46 18.13C12.07 18.52 12.07 19.15 12.46 19.54C12.85 19.93 13.48 19.93 13.87 19.54L23 10.41V13C23 13.55 23.45 14 24 14C24.55 14 25 13.55 25 13V7H19C18.45 7 18 7.45 18 8Z" fill="#1E1E1E"/>
</g>
<defs>
<clipPath id="clip0_178_2029">
<rect width="24" height="24" fill="white" transform="translate(4 4)"/>
</clipPath>
</defs>
</svg>
