<svg width="16" height="16" viewBox="0 0 16 16" fill="none" xmlns="http://www.w3.org/2000/svg">
<g clip-path="url(#clip0_787_46764)">
<path d="M11.3334 4.66675H9.33337C8.96671 4.66675 8.66671 4.96675 8.66671 5.33341C8.66671 5.70008 8.96671 6.00008 9.33337 6.00008H11.3334C12.4334 6.00008 13.3334 6.90008 13.3334 8.00008C13.3334 9.10008 12.4334 10.0001 11.3334 10.0001H9.33337C8.96671 10.0001 8.66671 10.3001 8.66671 10.6667C8.66671 11.0334 8.96671 11.3334 9.33337 11.3334H11.3334C13.1734 11.3334 14.6667 9.84008 14.6667 8.00008C14.6667 6.16008 13.1734 4.66675 11.3334 4.66675ZM5.33337 8.00008C5.33337 8.36675 5.63337 8.66675 6.00004 8.66675H10C10.3667 8.66675 10.6667 8.36675 10.6667 8.00008C10.6667 7.63341 10.3667 7.33341 10 7.33341H6.00004C5.63337 7.33341 5.33337 7.63341 5.33337 8.00008ZM6.66671 10.0001H4.66671C3.56671 10.0001 2.66671 9.10008 2.66671 8.00008C2.66671 6.90008 3.56671 6.00008 4.66671 6.00008H6.66671C7.03337 6.00008 7.33337 5.70008 7.33337 5.33341C7.33337 4.96675 7.03337 4.66675 6.66671 4.66675H4.66671C2.82671 4.66675 1.33337 6.16008 1.33337 8.00008C1.33337 9.84008 2.82671 11.3334 4.66671 11.3334H6.66671C7.03337 11.3334 7.33337 11.0334 7.33337 10.6667C7.33337 10.3001 7.03337 10.0001 6.66671 10.0001Z" fill="#666666"/>
</g>
<defs>
<clipPath id="clip0_787_46764">
<rect width="16" height="16" fill="white"/>
</clipPath>
</defs>
</svg>
