<svg width="25" height="24" viewBox="0 0 25 24" fill="none" xmlns="http://www.w3.org/2000/svg">
<g id="Market" clip-path="url(#clip0_2564_115296)">
<g id="Vector">
<path d="M8.33325 18C8.33325 19.1 7.43325 20 6.33325 20C5.23325 20 4.33325 19.1 4.33325 18C4.33325 16.9 5.23325 16 6.33325 16C7.43325 16 8.33325 16.9 8.33325 18ZM6.33325 10C5.23325 10 4.33325 10.9 4.33325 12C4.33325 13.1 5.23325 14 6.33325 14C7.43325 14 8.33325 13.1 8.33325 12C8.33325 10.9 7.43325 10 6.33325 10ZM6.33325 4C5.23325 4 4.33325 4.9 4.33325 6C4.33325 7.1 5.23325 8 6.33325 8C7.43325 8 8.33325 7.1 8.33325 6C8.33325 4.9 7.43325 4 6.33325 4ZM12.3333 8C13.4333 8 14.3333 7.1 14.3333 6C14.3333 4.9 13.4333 4 12.3333 4C11.2333 4 10.3333 4.9 10.3333 6C10.3333 7.1 11.2333 8 12.3333 8ZM12.3333 10C11.2333 10 10.3333 10.9 10.3333 12C10.3333 13.1 11.2333 14 12.3333 14C13.4333 14 14.3333 13.1 14.3333 12C14.3333 10.9 13.4333 10 12.3333 10ZM12.3333 16C11.2333 16 10.3333 16.9 10.3333 18C10.3333 19.1 11.2333 20 12.3333 20C13.4333 20 14.3333 19.1 14.3333 18C14.3333 16.9 13.4333 16 12.3333 16Z" fill="#666666"/>
<path d="M20.3333 6C20.3333 7.1 19.4333 8 18.3333 8C17.2333 8 16.3333 7.1 16.3333 6C16.3333 4.9 17.2333 4 18.3333 4C19.4333 4 20.3333 4.9 20.3333 6Z" fill="#666666"/>
<path d="M16.3333 12C16.3333 10.9 17.2333 10 18.3333 10C19.4333 10 20.3333 10.9 20.3333 12C20.3333 13.1 19.4333 14 18.3333 14C17.2333 14 16.3333 13.1 16.3333 12Z" fill="#666666"/>
<path d="M16.3333 18C16.3333 16.9 17.2333 16 18.3333 16C19.4333 16 20.3333 16.9 20.3333 18C20.3333 19.1 19.4333 20 18.3333 20C17.2333 20 16.3333 19.1 16.3333 18Z" fill="#666666"/>
</g>
</g>
<defs>
<clipPath id="clip0_2564_115296">
<rect width="24" height="24" fill="white" transform="translate(0.333252)"/>
</clipPath>
</defs>
</svg>
