<svg width="24" height="24" viewBox="0 0 24 24" fill="none" xmlns="http://www.w3.org/2000/svg">
<path d="M14.0757 8.6325L10.1607 2.1975C9.90571 1.7625 9.44821 1.5 8.94571 1.5H4.00321C2.91571 1.5 2.23321 2.67 2.76571 3.615C3.75544 5.36604 5.15233 6.85296 6.83821 7.95C7.40821 8.3925 8.11321 8.6325 8.84071 8.6325H14.0757Z" fill="#003ACC"/>
<path d="M19.9934 1.5H15.0509C14.5484 1.5 14.0909 1.7625 13.8359 2.1975L9.9209 8.6325H15.1634C15.8909 8.6325 16.5884 8.3925 17.1659 7.95C18.8534 6.855 20.2484 5.37 21.2384 3.615C21.7634 2.67 21.0809 1.5 19.9934 1.5Z" fill="#2163FD"/>
<path d="M11.9919 22.4995C16.1507 22.4995 19.5219 19.0442 19.5219 14.782C19.5219 10.5197 16.1507 7.06445 11.9919 7.06445C7.83316 7.06445 4.46191 10.5197 4.46191 14.782C4.46191 19.0442 7.83316 22.4995 11.9919 22.4995Z" fill="#EDEFF7"/>
<path d="M11.9995 21.5709C10.2295 21.5709 8.56453 20.8659 7.31953 19.5834C6.0665 18.3008 5.3687 16.5765 5.37703 14.7834C5.37703 12.9684 6.06703 11.2659 7.31953 9.98341C7.92724 9.35536 8.65506 8.85595 9.4597 8.51488C10.2643 8.17381 11.1293 7.99805 12.0033 7.99805C12.8772 7.99805 13.7422 8.17381 14.5469 8.51488C15.3515 8.85595 16.0793 9.35536 16.687 9.98341C19.267 12.6309 19.267 16.9359 16.687 19.5834C15.427 20.8659 13.762 21.5709 11.9995 21.5709ZM11.992 8.91841C10.5295 8.91841 9.05953 9.48841 7.94953 10.6359C6.86982 11.7457 6.26919 13.2351 6.27703 14.7834C6.27703 16.3509 6.86953 17.8209 7.94953 18.9309C8.47307 19.4745 9.10097 19.9068 9.7956 20.202C10.4902 20.4971 11.2373 20.6489 11.992 20.6484C13.522 20.6484 14.9545 20.0409 16.0345 18.9309C18.262 16.6434 18.262 12.9234 16.0345 10.6359C15.5114 10.0917 14.8836 9.65905 14.1889 9.36389C13.4941 9.06873 12.7469 8.91719 11.992 8.91841Z" fill="#DDE0F0"/>
<path d="M9.5495 18.5V17.4115L11.5495 15.1816C11.9455 14.7378 12.2492 14.3855 12.4604 14.1248C12.6782 13.8571 12.83 13.6281 12.9158 13.4379C13.0017 13.2477 13.0446 13.0539 13.0446 12.8567C13.0446 12.5255 12.9455 12.2649 12.7475 12.0746C12.5561 11.8844 12.3086 11.7893 12.005 11.7893C11.6881 11.7893 11.4142 11.8879 11.1832 12.0852C10.9521 12.2754 10.7838 12.5572 10.6782 12.9306L9.5 12.5396C9.57921 12.124 9.74092 11.7646 9.98515 11.4617C10.2294 11.1517 10.5264 10.9157 10.8762 10.7536C11.2327 10.5845 11.6089 10.5 12.005 10.5C12.4802 10.5 12.896 10.5916 13.2525 10.7748C13.6155 10.9579 13.896 11.2151 14.0941 11.5462C14.2987 11.8774 14.401 12.2649 14.401 12.7087C14.401 12.9905 14.3515 13.2688 14.2525 13.5436C14.1535 13.8184 14.005 14.1002 13.8069 14.389C13.6089 14.6709 13.3515 14.9879 13.0347 15.3402L11.302 17.2847H14.5V18.5H9.5495Z" fill="#2163FD"/>
</svg>
