<svg width="24" height="24" viewBox="0 0 24 24" fill="none" xmlns="http://www.w3.org/2000/svg">
<path d="M14.0757 8.6325L10.1607 2.1975C9.90571 1.7625 9.44821 1.5 8.94571 1.5H4.00321C2.91571 1.5 2.23321 2.67 2.76571 3.615C3.75544 5.36604 5.15233 6.85296 6.83821 7.95C7.40821 8.3925 8.11321 8.6325 8.84071 8.6325H14.0757Z" fill="#970E0C"/>
<path d="M19.9934 1.5H15.0509C14.5484 1.5 14.0909 1.7625 13.8359 2.1975L9.9209 8.6325H15.1634C15.8909 8.6325 16.5884 8.3925 17.1659 7.95C18.8534 6.855 20.2484 5.37 21.2384 3.615C21.7634 2.67 21.0809 1.5 19.9934 1.5Z" fill="#EB201E"/>
<path d="M11.9919 22.4995C16.1507 22.4995 19.5219 19.0442 19.5219 14.782C19.5219 10.5197 16.1507 7.06445 11.9919 7.06445C7.83316 7.06445 4.46191 10.5197 4.46191 14.782C4.46191 19.0442 7.83316 22.4995 11.9919 22.4995Z" fill="#FFB02E"/>
<path d="M11.9995 21.5709C10.2295 21.5709 8.56453 20.8659 7.31953 19.5834C6.0665 18.3008 5.3687 16.5765 5.37703 14.7834C5.37703 12.9684 6.06703 11.2659 7.31953 9.98341C7.92724 9.35536 8.65506 8.85595 9.4597 8.51488C10.2643 8.17381 11.1293 7.99805 12.0033 7.99805C12.8772 7.99805 13.7422 8.17381 14.5469 8.51488C15.3515 8.85595 16.0793 9.35536 16.687 9.98341C19.267 12.6309 19.267 16.9359 16.687 19.5834C15.427 20.8659 13.762 21.5709 11.9995 21.5709ZM11.992 8.91841C10.5295 8.91841 9.05953 9.48841 7.94953 10.6359C6.86982 11.7457 6.26919 13.2351 6.27703 14.7834C6.27703 16.3509 6.86953 17.8209 7.94953 18.9309C8.47307 19.4745 9.10097 19.9068 9.7956 20.202C10.4902 20.4971 11.2373 20.6489 11.992 20.6484C13.522 20.6484 14.9545 20.0409 16.0345 18.9309C18.262 16.6434 18.262 12.9234 16.0345 10.6359C15.5114 10.0917 14.8836 9.65905 14.1889 9.36389C13.4941 9.06873 12.7469 8.91719 11.992 8.91841Z" fill="#FCD53F"/>
<path d="M11.6962 19.5004V12.4241H10.0762V11.1191H13.2262V19.5004H11.6962Z" fill="#EB201E"/>
</svg>
