<svg width="24" height="24" viewBox="0 0 24 24" fill="none" xmlns="http://www.w3.org/2000/svg">
<path d="M14.0757 8.6325L10.1607 2.1975C9.90571 1.7625 9.44821 1.5 8.94571 1.5H4.00321C2.91571 1.5 2.23321 2.67 2.76571 3.615C3.75544 5.36604 5.15233 6.85296 6.83821 7.95C7.40821 8.3925 8.11321 8.6325 8.84071 8.6325H14.0757Z" fill="#A06D18"/>
<path d="M19.9934 1.5H15.0509C14.5484 1.5 14.0909 1.7625 13.8359 2.1975L9.9209 8.6325H15.1634C15.8909 8.6325 16.5884 8.3925 17.1659 7.95C18.8534 6.855 20.2484 5.37 21.2384 3.615C21.7634 2.67 21.0809 1.5 19.9934 1.5Z" fill="#FFB02E"/>
<path d="M11.9919 22.4995C16.1507 22.4995 19.5219 19.0442 19.5219 14.782C19.5219 10.5197 16.1507 7.06445 11.9919 7.06445C7.83316 7.06445 4.46191 10.5197 4.46191 14.782C4.46191 19.0442 7.83316 22.4995 11.9919 22.4995Z" fill="#66210B"/>
<path d="M11.9995 21.5709C10.2295 21.5709 8.56453 20.8659 7.31953 19.5834C6.0665 18.3008 5.3687 16.5765 5.37703 14.7834C5.37703 12.9684 6.06703 11.2659 7.31953 9.98341C7.92724 9.35536 8.65506 8.85595 9.4597 8.51488C10.2643 8.17381 11.1293 7.99805 12.0033 7.99805C12.8772 7.99805 13.7422 8.17381 14.5469 8.51488C15.3515 8.85595 16.0793 9.35536 16.687 9.98341C19.267 12.6309 19.267 16.9359 16.687 19.5834C15.427 20.8659 13.762 21.5709 11.9995 21.5709ZM11.992 8.91841C10.5295 8.91841 9.05953 9.48841 7.94953 10.6359C6.86982 11.7457 6.26919 13.2351 6.27703 14.7834C6.27703 16.3509 6.86953 17.8209 7.94953 18.9309C8.47307 19.4745 9.10097 19.9068 9.7956 20.202C10.4902 20.4971 11.2373 20.6489 11.992 20.6484C13.522 20.6484 14.9545 20.0409 16.0345 18.9309C18.262 16.6434 18.262 12.9234 16.0345 10.6359C15.5114 10.0917 14.8836 9.65905 14.1889 9.36389C13.4941 9.06873 12.7469 8.91719 11.992 8.91841Z" fill="#83511C"/>
<path d="M11.7583 19C11.3285 19 10.9199 18.9225 10.5324 18.7675C10.1519 18.6055 9.82431 18.38 9.54954 18.0911C9.28181 17.7952 9.09863 17.4465 9 17.0449L10.2576 16.6011C10.3844 16.9604 10.5782 17.2351 10.8388 17.4254C11.0995 17.6085 11.406 17.7001 11.7583 17.7001C12.0401 17.7001 12.2831 17.6473 12.4874 17.5416C12.6988 17.4359 12.8644 17.2845 12.9841 17.0872C13.1039 16.8829 13.1638 16.6433 13.1638 16.3686C13.1638 16.0938 13.1039 15.8613 12.9841 15.6711C12.8714 15.4738 12.7094 15.3223 12.498 15.2166C12.2867 15.111 12.0365 15.0581 11.7477 15.0581C11.6138 15.0581 11.4729 15.0722 11.325 15.1004C11.1841 15.1286 11.0572 15.1709 10.9445 15.2272L10.6169 14.5403L12.6565 12.2153H9.44386V11H14.2734V12.1308L12.2232 14.5297L12.2444 13.9908C12.7164 13.9978 13.1286 14.1 13.4808 14.2972C13.8331 14.4945 14.1079 14.7657 14.3052 15.111C14.5024 15.4562 14.6011 15.8613 14.6011 16.3263C14.6011 16.8336 14.4778 17.2915 14.2312 17.7001C13.9846 18.1017 13.6464 18.4188 13.2166 18.6513C12.7869 18.8838 12.3007 19 11.7583 19Z" fill="#FFB02E"/>
</svg>
