<svg width="16" height="16" viewBox="0 0 16 16" fill="none" xmlns="http://www.w3.org/2000/svg">
<g clip-path="url(#clip0_1365_11683)">
<path d="M7.99967 1.33398C4.31967 1.33398 1.33301 4.32065 1.33301 8.00065C1.33301 11.6807 4.31967 14.6673 7.99967 14.6673C11.6797 14.6673 14.6663 11.6807 14.6663 8.00065C14.6663 4.32065 11.6797 1.33398 7.99967 1.33398ZM8.93967 12.0607V12.4473C8.93967 12.934 8.53967 13.334 8.05301 13.334H8.04634C7.55967 13.334 7.15967 12.934 7.15967 12.4473V12.0473C6.27301 11.8607 5.48634 11.374 5.15301 10.554C4.99967 10.1873 5.28634 9.78065 5.68634 9.78065H5.84634C6.09301 9.78065 6.29301 9.94732 6.38634 10.1807C6.57967 10.6807 7.08634 11.0273 8.05967 11.0273C9.36634 11.0273 9.65967 10.374 9.65967 9.96732C9.65967 9.41398 9.36634 8.89398 7.87967 8.54065C6.22634 8.14065 5.09301 7.46065 5.09301 6.09398C5.09301 4.94732 6.01967 4.20065 7.16634 3.95398V3.55398C7.16634 3.06732 7.56634 2.66732 8.05301 2.66732H8.05967C8.54634 2.66732 8.94634 3.06732 8.94634 3.55398V3.96732C9.86634 4.19398 10.4463 4.76732 10.6997 5.47398C10.833 5.84065 10.553 6.22732 10.1597 6.22732H9.98634C9.73967 6.22732 9.53967 6.05398 9.47301 5.81398C9.31967 5.30732 8.89967 4.98065 8.05967 4.98065C7.05967 4.98065 6.45967 5.43398 6.45967 6.07398C6.45967 6.63398 6.89301 7.00065 8.23967 7.34732C9.58634 7.69398 11.0263 8.27398 11.0263 9.95399C11.013 11.174 10.0997 11.8407 8.93967 12.0607Z" fill="#666666"/>
</g>
<defs>
<clipPath id="clip0_1365_11683">
<rect width="16" height="16" fill="white"/>
</clipPath>
</defs>
</svg>
