<svg width="16" height="16" viewBox="0 0 16 16" fill="none" xmlns="http://www.w3.org/2000/svg">
<g id="Moon ">
<path id="Vector (Stroke)" fill-rule="evenodd" clip-rule="evenodd" d="M6.77234 2.80503C6.24176 2.9307 5.7312 3.13755 5.25934 3.42041C4.43125 3.91682 3.75344 4.62871 3.29822 5.48013C2.84299 6.33156 2.62743 7.29059 2.67452 8.25492C2.72161 9.21925 3.02959 10.1527 3.5656 10.9557C4.10162 11.7588 4.84556 12.4012 5.71808 12.8146C6.5906 13.2279 7.55896 13.3967 8.51987 13.3029C9.48078 13.209 10.3982 12.8561 11.1743 12.2818C11.5536 12.001 11.8921 11.6726 12.1825 11.306C11.4311 11.3748 10.6679 11.2934 9.93863 11.0601C8.67667 10.6563 7.59611 9.82303 6.88477 8.70519C6.17343 7.58735 5.8763 6.25558 6.04501 4.94138C6.14249 4.1821 6.3919 3.45642 6.77234 2.80503ZM8.08424 1.33346H8.26206C8.53616 1.33346 8.78232 1.50123 8.88255 1.75634C8.98279 2.01146 8.91665 2.30192 8.71586 2.4885C7.97361 3.1782 7.49651 4.10619 7.36749 5.11116C7.23847 6.11614 7.4657 7.13455 8.00966 7.98937C8.55363 8.84419 9.37994 9.48137 10.345 9.79015C11.31 10.0989 12.3527 10.0598 13.2919 9.67952C13.541 9.57864 13.8264 9.63727 14.0156 9.82822C14.2048 10.0192 14.2608 10.3051 14.1577 10.5533C13.6945 11.6677 12.9375 12.6356 11.9674 13.3535C10.9974 14.0714 9.8506 14.5126 8.64946 14.6299C7.44832 14.7472 6.23787 14.5362 5.14722 14.0195C4.05658 13.5028 3.12665 12.6998 2.45663 11.696C1.78661 10.6922 1.40164 9.52537 1.34277 8.31996C1.28391 7.11454 1.55337 5.91575 2.12239 4.85147C2.69142 3.78719 3.53868 2.89733 4.5738 2.27682C5.60891 1.65631 6.79305 1.32842 7.9999 1.32813C8.02825 1.32812 8.05641 1.32992 8.08424 1.33346Z" fill="currentColor"/>
</g>
</svg>
