<svg width="24" height="24" viewBox="0 0 24 24" fill="none" xmlns="http://www.w3.org/2000/svg">
<g id="Group">
<path id="Vector" d="M15.5 11.4996C15.5 13.4996 13 14.9996 13 16.4996H11C11 14.9996 8.5 13.4996 8.5 11.4996C8.5 9.56957 10.07 7.99957 12 7.99957C13.93 7.99957 15.5 9.56957 15.5 11.4996ZM13 17.4996H11V17.9996C11 18.5496 11.45 18.9996 12 18.9996C12.55 18.9996 13 18.5496 13 17.9996V17.4996ZM22 11.9996C22 9.53957 21.11 7.28957 19.64 5.54957C19.35 5.20957 18.84 5.16957 18.52 5.48957C18.25 5.75957 18.22 6.19957 18.46 6.48957C19.73 7.96957 20.5 9.89957 20.5 11.9996C20.5 14.0996 19.73 16.0296 18.46 17.5196C18.21 17.8096 18.25 18.2496 18.52 18.5196C18.84 18.8396 19.35 18.7996 19.64 18.4596C21.11 16.7096 22 14.4596 22 11.9996ZM3.5 11.9996C3.5 9.89957 4.27 7.96957 5.54 6.47957C5.79 6.18957 5.75 5.74957 5.48 5.47957C5.17 5.16957 4.65 5.19957 4.36 5.53957C2.89 7.28957 2 9.53957 2 11.9996C2 14.4596 2.89 16.7096 4.36 18.4596C4.65 18.7996 5.16 18.8396 5.48 18.5196C5.75 18.2496 5.78 17.8096 5.54 17.5196C4.27 16.0296 3.5 14.0996 3.5 11.9996ZM17.5 11.9996C17.5 13.2796 17.06 14.4696 16.32 15.4096C16.09 15.6996 16.12 16.1196 16.39 16.3896C16.71 16.7096 17.24 16.6796 17.52 16.3196C18.44 15.1296 19 13.6296 19 11.9996C19 10.3696 18.44 8.86957 17.51 7.68957C17.23 7.32957 16.7 7.29957 16.38 7.61957C16.12 7.87957 16.08 8.29957 16.31 8.59957C17.06 9.52957 17.5 10.7196 17.5 11.9996ZM7.62 16.3796C7.88 16.1196 7.92 15.6996 7.69 15.3996C6.94 14.4696 6.5 13.2796 6.5 11.9996C6.5 10.7196 6.94 9.52957 7.68 8.58957C7.91 8.29957 7.88 7.87957 7.61 7.60957C7.3 7.29957 6.77 7.32957 6.49 7.67957C5.56 8.86957 5 10.3696 5 11.9996C5 13.6296 5.56 15.1296 6.49 16.3196C6.77 16.6696 7.3 16.6996 7.62 16.3796Z" fill="#1E1E1E"/>
</g>
</svg>
