<svg width="16" height="16" viewBox="0 0 16 16" fill="none" xmlns="http://www.w3.org/2000/svg">
<g clip-path="url(#clip0_1776_44834)">
<path d="M10.333 7.66833C10.333 9.00166 8.66634 10.0017 8.66634 11.0017H7.33301C7.33301 10.0017 5.66634 9.00166 5.66634 7.66833C5.66634 6.38166 6.71301 5.335 7.99967 5.335C9.28634 5.335 10.333 6.38166 10.333 7.66833ZM8.66634 11.6683H7.33301V12.0017C7.33301 12.3683 7.63301 12.6683 7.99967 12.6683C8.36634 12.6683 8.66634 12.3683 8.66634 12.0017V11.6683ZM14.6663 8.00166C14.6663 6.36166 14.073 4.86166 13.093 3.70166C12.8997 3.475 12.5597 3.44833 12.3463 3.66166C12.1663 3.84166 12.1463 4.135 12.3063 4.32833C13.153 5.315 13.6663 6.60166 13.6663 8.00166C13.6663 9.40166 13.153 10.6883 12.3063 11.6817C12.1397 11.875 12.1663 12.1683 12.3463 12.3483C12.5597 12.5617 12.8997 12.535 13.093 12.3083C14.073 11.1417 14.6663 9.64166 14.6663 8.00166ZM2.33301 8.00166C2.33301 6.60166 2.84634 5.315 3.69301 4.32166C3.85967 4.12833 3.83301 3.835 3.65301 3.655C3.44634 3.44833 3.09967 3.46833 2.90634 3.695C1.92634 4.86166 1.33301 6.36166 1.33301 8.00166C1.33301 9.64166 1.92634 11.1417 2.90634 12.3083C3.09967 12.535 3.43967 12.5617 3.65301 12.3483C3.83301 12.1683 3.85301 11.875 3.69301 11.6817C2.84634 10.6883 2.33301 9.40166 2.33301 8.00166ZM11.6663 8.00166C11.6663 8.855 11.373 9.64833 10.8797 10.275C10.7263 10.4683 10.7463 10.7483 10.9263 10.9283C11.1397 11.1417 11.493 11.1217 11.6797 10.8817C12.293 10.0883 12.6663 9.08833 12.6663 8.00166C12.6663 6.915 12.293 5.915 11.673 5.12833C11.4863 4.88833 11.133 4.86833 10.9197 5.08166C10.7463 5.255 10.7197 5.535 10.873 5.735C11.373 6.355 11.6663 7.14833 11.6663 8.00166ZM5.07967 10.9217C5.25301 10.7483 5.27967 10.4683 5.12634 10.2683C4.62634 9.64833 4.33301 8.855 4.33301 8.00166C4.33301 7.14833 4.62634 6.355 5.11967 5.72833C5.27301 5.535 5.25301 5.255 5.07301 5.075C4.86634 4.86833 4.51301 4.88833 4.32634 5.12166C3.70634 5.915 3.33301 6.915 3.33301 8.00166C3.33301 9.08833 3.70634 10.0883 4.32634 10.8817C4.51301 11.115 4.86634 11.135 5.07967 10.9217Z" fill="currentColor"/>
</g>
<defs>
<clipPath id="clip0_1776_44834">
<rect width="16" height="16" fill="white"/>
</clipPath>
</defs>
</svg>
