<svg xmlns="http://www.w3.org/2000/svg" width="16" height="16" viewBox="0 0 16 16" fill="none">
  <g clip-path="url(#clip0_1702_25100)">
    <path d="M8.5 10.5C9.60457 10.5 10.5 9.60457 10.5 8.5C10.5 7.39543 9.60457 6.5 8.5 6.5C7.39543 6.5 6.5 7.39543 6.5 8.5C6.5 9.60457 7.39543 10.5 8.5 10.5Z" fill="white"/>
    <path d="M13.8335 3.16536H11.7202L10.8935 2.26536C10.6468 1.99203 10.2868 1.83203 9.9135 1.83203H7.08683C6.7135 1.83203 6.3535 1.99203 6.10016 2.26536L5.28016 3.16536H3.16683C2.4335 3.16536 1.8335 3.76536 1.8335 4.4987V12.4987C1.8335 13.232 2.4335 13.832 3.16683 13.832H13.8335C14.5668 13.832 15.1668 13.232 15.1668 12.4987V4.4987C15.1668 3.76536 14.5668 3.16536 13.8335 3.16536ZM8.50016 11.832C6.66016 11.832 5.16683 10.3387 5.16683 8.4987C5.16683 6.6587 6.66016 5.16536 8.50016 5.16536C10.3402 5.16536 11.8335 6.6587 11.8335 8.4987C11.8335 10.3387 10.3402 11.832 8.50016 11.832Z" fill="white"/>
  </g>
  <defs>
    <clipPath id="clip0_1702_25100">
      <rect width="16" height="16" fill="white" transform="translate(0.5 0.5)"/>
    </clipPath>
  </defs>
</svg>