<svg width="16" height="16" viewBox="0 0 16 16" fill="none" xmlns="http://www.w3.org/2000/svg">
<g id="refresh" clip-path="url(#clip0_2374_43493)">
<path id="Vector" d="M11.7666 4.23268C10.6799 3.14601 9.13993 2.51934 7.4466 2.69268C4.99993 2.93934 2.9866 4.92601 2.71327 7.37268C2.3466 10.606 4.8466 13.3327 7.99993 13.3327C10.1266 13.3327 11.9533 12.086 12.8066 10.2927C13.0199 9.84601 12.6999 9.33268 12.2066 9.33268C11.9599 9.33268 11.7266 9.46601 11.6199 9.68601C10.8666 11.306 9.05993 12.3327 7.0866 11.8927C5.6066 11.566 4.41327 10.3593 4.09993 8.87934C3.53993 6.29268 5.5066 3.99934 7.99993 3.99934C9.1066 3.99934 10.0933 4.45934 10.8133 5.18601L9.8066 6.19268C9.3866 6.61268 9.67993 7.33268 10.2733 7.33268H12.6666C13.0333 7.33268 13.3333 7.03268 13.3333 6.66601V4.27268C13.3333 3.67934 12.6133 3.37934 12.1933 3.79934L11.7666 4.23268Z" fill="#666666"/>
</g>
<defs>
<clipPath id="clip0_2374_43493">
<rect width="16" height="16" fill="white"/>
</clipPath>
</defs>
</svg>
