<svg width="24" height="24" viewBox="0 0 24 24" fill="none" xmlns="http://www.w3.org/2000/svg">
<g id="star_outline" clip-path="url(#clip0_2352_67293)">
<path id="Vector" d="M20.8253 9.02445L15.502 8.56251L13.4233 3.66816C13.0493 2.77728 11.7735 2.77728 11.3995 3.66816L9.32081 8.57351L4.00852 9.02445C3.04065 9.10144 2.6447 10.3113 3.3816 10.9492L7.41807 14.4467L6.20823 19.638C5.98826 20.5839 7.01112 21.3318 7.84701 20.8259L12.4114 18.0762L16.9758 20.8369C17.8117 21.3428 18.8345 20.5949 18.6146 19.649L17.4047 14.4467L21.4412 10.9492C22.1781 10.3113 21.7932 9.10144 20.8253 9.02445ZM12.4114 16.0195L8.27595 18.5162L9.3758 13.8088L5.72429 10.6412L10.5416 10.2233L12.4114 5.79088L14.2922 10.2343L19.1095 10.6522L15.458 13.8198L16.5578 18.5272L12.4114 16.0195Z" fill="#1E1E1E"/>
</g>
<defs>
<clipPath id="clip0_2352_67293">
<rect width="24" height="24" fill="white"/>
</clipPath>
</defs>
</svg>
