<svg width="24" height="25" viewBox="0 0 24 25" fill="currentColor" xmlns="http://www.w3.org/2000/svg">
<g id="swap_vert" clip-path="url(#clip0_3245_29905)">
<path id="Vector" d="M16 17.5095V11.4995C16 10.9495 15.55 10.4995 15 10.4995C14.45 10.4995 14 10.9495 14 11.4995V17.5095H12.21C11.76 17.5095 11.54 18.0495 11.86 18.3595L14.65 21.1395C14.85 21.3295 15.16 21.3295 15.36 21.1395L18.15 18.3595C18.47 18.0495 18.24 17.5095 17.8 17.5095H16ZM8.65003 3.84953L5.86003 6.63953C5.54003 6.94953 5.76003 7.48953 6.21003 7.48953H8.00003V13.4995C8.00003 14.0495 8.45003 14.4995 9.00003 14.4995C9.55003 14.4995 10 14.0495 10 13.4995V7.48953H11.79C12.24 7.48953 12.46 6.94953 12.14 6.63953L9.35003 3.84953C9.16003 3.65953 8.84003 3.65953 8.65003 3.84953Z" fill="currentColor"/>
</g>
<defs>
<clipPath id="clip0_3245_29905">
<rect width="24" height="24" fill="white" transform="translate(0 0.5)"/>
</clipPath>
</defs>
</svg>
