<svg width="16" height="16" viewBox="0 0 16 16" fill="none" xmlns="http://www.w3.org/2000/svg">
<g id="timer" clip-path="url(#clip0_1671_123718)">
<path id="Vector" d="M9.3334 0.666992H6.66673C6.30007 0.666992 6.00007 0.966992 6.00007 1.33366C6.00007 1.70033 6.30007 2.00033 6.66673 2.00033H9.3334C9.70007 2.00033 10.0001 1.70033 10.0001 1.33366C10.0001 0.966992 9.70007 0.666992 9.3334 0.666992ZM8.00007 9.33366C8.36673 9.33366 8.66673 9.03366 8.66673 8.66699V6.00033C8.66673 5.63366 8.36673 5.33366 8.00007 5.33366C7.6334 5.33366 7.3334 5.63366 7.3334 6.00033V8.66699C7.3334 9.03366 7.6334 9.33366 8.00007 9.33366ZM12.6867 4.92699L13.1867 4.42699C13.4401 4.17366 13.4467 3.75366 13.1867 3.49366L13.1801 3.48699C12.9201 3.22699 12.5067 3.23366 12.2467 3.48699L11.7467 3.98699C10.7134 3.16033 9.4134 2.66699 8.00007 2.66699C4.80007 2.66699 2.08007 5.30699 2.00007 8.50699C1.9134 11.8937 4.62673 14.667 8.00007 14.667C11.3201 14.667 14.0001 11.9803 14.0001 8.66699C14.0001 7.25366 13.5067 5.95366 12.6867 4.92699ZM8.00007 13.3337C5.42007 13.3337 3.3334 11.247 3.3334 8.66699C3.3334 6.08699 5.42007 4.00033 8.00007 4.00033C10.5801 4.00033 12.6667 6.08699 12.6667 8.66699C12.6667 11.247 10.5801 13.3337 8.00007 13.3337Z" fill="currentColor"/>
</g>
<defs>
<clipPath id="clip0_1671_123718">
<rect width="16" height="16" fill="white"/>
</clipPath>
</defs>
</svg>
