<svg width="17" height="16" viewBox="0 0 17 16" fill="none" xmlns="http://www.w3.org/2000/svg">
<g id="trending_down" clip-path="url(#clip0_110_2979)">
<path id="Vector" d="M11.7333 11.4333L12.6933 10.4733L9.44 7.22L7.24667 9.41333C6.98667 9.67333 6.56667 9.67333 6.30667 9.41333L2.30667 5.40667C2.04667 5.14667 2.04667 4.72667 2.30667 4.46667C2.56667 4.20667 2.98667 4.20667 3.24667 4.46667L6.77333 8L8.96667 5.80667C9.22667 5.54667 9.64667 5.54667 9.90667 5.80667L13.6333 9.52667L14.5933 8.56667C14.8 8.36 15.16 8.50667 15.16 8.8V11.66C15.16 11.8467 15.0133 11.9933 14.8267 11.9933H11.9667C11.6733 12 11.5267 11.64 11.7333 11.4333Z" fill="white"/>
</g>
<defs>
<clipPath id="clip0_110_2979">
<rect width="16" height="16" fill="white" transform="translate(0.5)"/>
</clipPath>
</defs>
</svg>
