<svg width="24" height="24" viewBox="0 0 24 24" fill="none" xmlns="http://www.w3.org/2000/svg">
<g id="Wallet ">
<path id="Vector" d="M2 5C2 4.44772 2.44772 4 3 4H15.6364C16.3597 4 17.0534 4.28734 17.5648 4.7988C18.0763 5.31026 18.3636 6.00395 18.3636 6.72727V7.63636H21C21.5523 7.63636 22 8.08408 22 8.63636V19.3636C22 19.9159 21.5523 20.3636 21 20.3636H3C2.44772 20.3636 2 19.9159 2 19.3636V5ZM3.81818 9.45455V18.5455H20.1818V9.45455H3.81818ZM3.81818 7.63636H16.5455V6.72727C16.5455 6.48617 16.4497 6.25494 16.2792 6.08445C16.1087 5.91396 15.8775 5.81818 15.6364 5.81818H3.81818V7.63636ZM15.6364 14C15.6364 13.4979 16.0434 13.0909 16.5455 13.0909H17.4545C17.9566 13.0909 18.3636 13.4979 18.3636 14C18.3636 14.5021 17.9566 14.9091 17.4545 14.9091H16.5455C16.0434 14.9091 15.6364 14.5021 15.6364 14Z" fill="white"/>
</g>
</svg>
