<svg width="28" height="28" viewBox="0 0 28 28" fill="none" xmlns="http://www.w3.org/2000/svg">
<g clipPath="url(#clip0_115_3892)">
<path d="M22.317 6.15557C20.7873 5.45369 19.147 4.93658 17.4319 4.6404C17.4007 4.63469 17.3695 4.64897 17.3534 4.67754C17.1424 5.05276 16.9087 5.54225 16.7451 5.927C14.9004 5.65083 13.0652 5.65083 11.2583 5.927C11.0946 5.5337 10.8525 5.05276 10.6406 4.67754C10.6245 4.64992 10.5933 4.63564 10.562 4.6404C8.84791 4.93563 7.20756 5.45275 5.67693 6.15557C5.66368 6.16129 5.65233 6.17082 5.64479 6.18319C2.53339 10.8316 1.68105 15.3657 2.09918 19.8436C2.10107 19.8655 2.11337 19.8864 2.1304 19.8997C4.18321 21.4073 6.17171 22.3225 8.12328 22.9291C8.15451 22.9386 8.18761 22.9272 8.20748 22.9015C8.66913 22.2711 9.08064 21.6063 9.43348 20.9073C9.4543 20.8664 9.43442 20.8178 9.39186 20.8016C8.73913 20.554 8.1176 20.2521 7.51973 19.9093C7.47244 19.8816 7.46865 19.814 7.51216 19.7816C7.63797 19.6873 7.76382 19.5893 7.88396 19.4902C7.90569 19.4721 7.93598 19.4683 7.96153 19.4797C11.8893 21.273 16.1415 21.273 20.023 19.4797C20.0485 19.4674 20.0788 19.4712 20.1015 19.4893C20.2216 19.5883 20.3475 19.6873 20.4742 19.7816C20.5177 19.814 20.5149 19.8816 20.4676 19.9093C19.8697 20.2588 19.2482 20.554 18.5945 20.8006C18.552 20.8168 18.533 20.8664 18.5538 20.9073C18.9143 21.6054 19.3258 22.2701 19.7789 22.9005C19.7978 22.9272 19.8319 22.9386 19.8631 22.9291C21.8241 22.3225 23.8126 21.4073 25.8654 19.8997C25.8834 19.8864 25.8948 19.8664 25.8967 19.8445C26.3971 14.6676 25.0585 10.1706 22.3482 6.18414C22.3416 6.17082 22.3303 6.16129 22.317 6.15557ZM10.02 17.117C8.8375 17.117 7.86313 16.0313 7.86313 14.6981C7.86313 13.3648 8.8186 12.2791 10.02 12.2791C11.2309 12.2791 12.1958 13.3743 12.1769 14.6981C12.1769 16.0313 11.2214 17.117 10.02 17.117ZM17.9947 17.117C16.8123 17.117 15.8379 16.0313 15.8379 14.6981C15.8379 13.3648 16.7933 12.2791 17.9947 12.2791C19.2056 12.2791 20.1705 13.3743 20.1516 14.6981C20.1516 16.0313 19.2056 17.117 17.9947 17.117Z" fill="#525252"/>
</g>
<defs>
<clipPath id="clip0_115_3892">
<rect width="28" height="28" rx="2" fill="white"/>
</clipPath>
</defs>
</svg>
