<svg width="28" height="28" viewBox="0 0 28 28" fill="none" xmlns="http://www.w3.org/2000/svg">
<g clip-path="url(#clip0_930_14978)">
<path d="M22.317 6.15606C20.7873 5.45418 19.147 4.93706 17.4319 4.64089C17.4007 4.63517 17.3695 4.64946 17.3534 4.67803C17.1424 5.05324 16.9087 5.54274 16.7451 5.92749C14.9004 5.65132 13.0652 5.65132 11.2583 5.92749C11.0946 5.53419 10.8525 5.05324 10.6406 4.67803C10.6245 4.65041 10.5933 4.63613 10.562 4.64089C8.84791 4.93612 7.20756 5.45323 5.67693 6.15606C5.66368 6.16177 5.65233 6.17131 5.64479 6.18368C2.53339 10.832 1.68105 15.3661 2.09918 19.844C2.10107 19.8659 2.11337 19.8869 2.1304 19.9002C4.18321 21.4078 6.17171 22.323 8.12328 22.9296C8.15451 22.9391 8.18761 22.9277 8.20748 22.902C8.66913 22.2716 9.08064 21.6068 9.43348 20.9078C9.4543 20.8668 9.43442 20.8183 9.39186 20.8021C8.73913 20.5545 8.1176 20.2526 7.51973 19.9098C7.47244 19.8821 7.46865 19.8145 7.51216 19.7821C7.63797 19.6878 7.76382 19.5897 7.88396 19.4907C7.90569 19.4726 7.93598 19.4688 7.96153 19.4802C11.8893 21.2735 16.1415 21.2735 20.023 19.4802C20.0485 19.4678 20.0788 19.4717 20.1015 19.4898C20.2216 19.5888 20.3475 19.6878 20.4742 19.7821C20.5177 19.8145 20.5149 19.8821 20.4676 19.9098C19.8697 20.2592 19.2482 20.5545 18.5945 20.8011C18.552 20.8173 18.533 20.8668 18.5538 20.9078C18.9143 21.6058 19.3258 22.2706 19.7789 22.901C19.7978 22.9277 19.8319 22.9391 19.8631 22.9296C21.8241 22.323 23.8126 21.4078 25.8654 19.9002C25.8834 19.8869 25.8948 19.8669 25.8967 19.845C26.3971 14.6681 25.0585 10.1711 22.3482 6.18462C22.3416 6.17131 22.3303 6.16177 22.317 6.15606ZM10.02 17.1175C8.8375 17.1175 7.86313 16.0318 7.86313 14.6985C7.86313 13.3653 8.8186 12.2796 10.02 12.2796C11.2309 12.2796 12.1958 13.3748 12.1769 14.6985C12.1769 16.0318 11.2214 17.1175 10.02 17.1175ZM17.9947 17.1175C16.8123 17.1175 15.8379 16.0318 15.8379 14.6985C15.8379 13.3653 16.7933 12.2796 17.9947 12.2796C19.2056 12.2796 20.1705 13.3748 20.1516 14.6985C20.1516 16.0318 19.2056 17.1175 17.9947 17.1175Z" fill="url(#paint0_linear_930_14978)"/>
</g>
<defs>
<linearGradient id="paint0_linear_930_14978" x1="5" y1="8.00049" x2="30" y2="27.0005" gradientUnits="userSpaceOnUse">
<stop stop-color="#EB201E"/>
<stop offset="1" stop-color="#640303"/>
</linearGradient>
<clipPath id="clip0_930_14978">
<rect width="28" height="28" rx="2" fill="white"/>
</clipPath>
</defs>
</svg>
