<svg width="28" height="28" viewBox="0 0 28 28" fill="none" xmlns="http://www.w3.org/2000/svg">
<g clip-path="url(#clip0_115_3897)">
<path fill-rule="evenodd" clip-rule="evenodd" d="M26 14C26 20.6274 20.6274 26 14 26C7.37258 26 2 20.6274 2 14C2 7.37258 7.37258 2 14 2C20.6274 2 26 7.37258 26 14ZM14.43 10.8589C13.2628 11.3444 10.9301 12.3492 7.43189 13.8733C6.86383 14.0992 6.56626 14.3202 6.53917 14.5363C6.49339 14.9015 6.95071 15.0453 7.57347 15.2411C7.65818 15.2678 7.74595 15.2954 7.83594 15.3246C8.44864 15.5238 9.27283 15.7568 9.70129 15.766C10.0899 15.7744 10.5237 15.6142 11.0026 15.2853C14.2712 13.079 15.9584 11.9638 16.0643 11.9398C16.139 11.9228 16.2426 11.9015 16.3128 11.9638C16.3829 12.0262 16.376 12.1443 16.3686 12.176C16.3233 12.3691 14.5281 14.0381 13.5991 14.9018C13.3095 15.171 13.1041 15.362 13.0621 15.4056C12.968 15.5033 12.8721 15.5958 12.78 15.6846C12.2108 16.2333 11.7839 16.6448 12.8036 17.3168C13.2936 17.6397 13.6858 17.9067 14.077 18.1731C14.5042 18.4641 14.9303 18.7543 15.4816 19.1157C15.6221 19.2077 15.7562 19.3034 15.8869 19.3965C16.3841 19.751 16.8307 20.0694 17.3826 20.0186C17.7032 19.9891 18.0345 19.6876 18.2027 18.7884C18.6002 16.6631 19.3816 12.0585 19.5622 10.161C19.578 9.99473 19.5581 9.78197 19.5422 9.68857C19.5262 9.59518 19.4928 9.46211 19.3714 9.3636C19.2276 9.24694 19.0056 9.22234 18.9064 9.22408C18.455 9.23203 17.7626 9.47282 14.43 10.8589Z" fill="#525252"/>
</g>
<defs>
<clipPath id="clip0_115_3897">
<rect width="24" height="24" fill="white" transform="translate(2 2)"/>
</clipPath>
</defs>
</svg>
